<!-- Generator: Adobe Illustrator 25.0.1, SVG Export Plug-In . SVG Version: 6.00 Build 0)  -->
<svg version="1.1" xmlns="http://www.w3.org/2000/svg" xmlns:xlink="http://www.w3.org/1999/xlink" x="0px" y="0px"
	 viewBox="0 0 841.89 595.28" style="enable-background:new 0 0 841.89 595.28;" xml:space="preserve">
<style type="text/css">
	.st0{fill:#FFFFFF;}
	.st1{fill:#FAA61A;}
	.st2{fill:#D1223E;}
</style>
<g>
	<rect x="110" y="96" class="st0" width="628" height="347"/>
	<g>
		<g>
			<path class="st1" d="M313.42,217.46v22.01c0,1.84,3.06,2.51,5.76,2.96v-24.89c-0.77,0.53-1.75,0.86-2.82,0.86
				C315.23,218.4,314.21,218.05,313.42,217.46z M316.36,216.57c1.87,0,3.38-1.64,3.38-3.67c0-2.03-1.52-5.97-3.38-5.97
				c-1.87,0-3.38,3.94-3.38,5.97C312.97,214.92,314.49,216.57,316.36,216.57z M303.49,258.23v11.08h10.73
				c5.46,0,11.35-0.89,15.61-2.05v-13.5h2.68c-2.01-5.48-6.73-9.64-12.54-10.81h-6.76c-5.73,1.16-10.38,5.19-12.43,10.59h17.52
				C318.3,253.53,304.07,254.62,303.49,258.23z M341.37,272.88h-49.8v10.21c0,0,31.78,0,41.59,0
				C342.97,283.09,341.37,272.88,341.37,272.88z M346.37,285.62h-62.35c0,3.22,3.39,4.55,3.39,4.55v45.73c0,0,0.49,13.01-8.5,21.26
				c6.46-2.13,12.85-4.83,18.21-7.73v-47.02c0-4.03,3.24-7.3,7.25-7.3c4,0,7.26,3.27,7.26,7.3v37.4c3.7-2.97,7.06-6.12,10.12-9.41
				v-27.99c0-4.03,3.25-7.3,7.26-7.3c4.01,0,7.26,3.27,7.26,7.3v7.81C340.82,301.94,344.07,293.52,346.37,285.62z"/>
			<path class="st2" d="M198.43,184.25v69.11c0,22.61,11.34,83.07,73.7,103.8c-9.24-8.3-8.5-21.26-8.5-21.26V305.3
				c-11.8,7-11.62,28.73-11.62,28.73c-25.65-48.66,12.74-58.9,26.1-66.68c13.89-8.1,9.39-20.77,9.39-20.77
				c0.02,9.73-7.17,15.33-21.26,16.28c-14.41,0.97-19.45,12.21-19.45,12.21s-10.46-5.83-8.89-16.94c0.79,0.39,16.09,6.05,20.48-9.1
				c0,0-9.52-8.18-16.1-6.95c-6.58,1.23-6.96,6.51-6.96,6.51s-13.94-5.16-4.08-15.08c-4.33,2.97-8.41,0.77-8.41,0.77
				s4.07-6.62,22.91-17.1c-0.17-0.32-0.25-0.78-0.18-1.17c0,0,1.3-10.7,26.29-14.94c21.06-3.57,44.06,5.67,47.9-16.82H198.43z
				 M249.43,220.52c0,0,7.79,1.55,11.19-0.66c3.4-2.21-4.08-3.29-7.24-3.65L249.43,220.52z"/>
		</g>
		<g>
			<path class="st2" d="M518.83,273.34c-2.86,0-5.18,2.32-5.18,5.17s2.32,5.17,5.18,5.17c2.86,0,5.17-2.32,5.17-5.17
				S521.69,273.34,518.83,273.34z M406.37,290.66c-1.84-0.54-3.92-0.77-6.23-0.77c-10.76,0-18.14,8.07-18.14,21.6
				c0,13.14,7.07,20.98,19.29,20.98c6.46,0,11.14-1.15,14.45-3v-54.84h-9.38V290.66z M406.37,325.55c-1.08,0.69-2.61,0.92-4.84,0.92
				c-7.22,0-10.22-6.15-10.22-15.53c0-8.76,2.77-15.76,10.91-15.76c1.46,0,2.84,0.15,4.15,0.54V325.55z M514.12,331.7h9.38v-41.43
				h-9.38V331.7z M555.02,285.89l-4.73-9.71c-0.86-1.67-2.59-2.84-4.59-2.84c-1.95,0-3.65,1.1-4.53,2.69l8.7,9.87H555.02z
				 M637.89,325.94c-6.84,0-10.76-3.84-11.52-11.53c10.7,0,21.74-1.27,25.59-3.69c0.38-13.91-5.61-21.21-16.6-21.21
				c-10.84,0-17.68,7.84-17.68,21.37c0,13.99,7.46,21.6,19.21,21.6c6.3,0,10.76-1.31,13.68-2.92l-2.23-5.92
				C646.11,324.79,642.65,325.94,637.89,325.94z M635.04,295.27c5.15,0,8.15,3.54,8.15,11.92c-4.64,1.78-11.81,2.46-17.05,2.46
				C625.91,299.73,629.59,295.27,635.04,295.27z M442.71,289.51c-10.84,0-17.68,7.84-17.68,21.37c0,13.99,7.45,21.6,19.21,21.6
				c6.3,0,10.76-1.31,13.68-2.92l-2.23-5.92c-2.23,1.15-5.69,2.31-10.46,2.31c-6.84,0-10.75-3.84-11.52-11.53
				c10.7,0,21.74-1.27,25.59-3.69C459.7,296.81,453.7,289.51,442.71,289.51z M433.5,309.64c-0.23-9.92,3.44-14.37,8.9-14.37
				c5.15,0,8.15,3.54,8.15,11.92C445.91,308.96,438.74,309.64,433.5,309.64z M551.02,289.51c-10.84,0-17.68,7.84-17.68,21.37
				c0,13.99,7.46,21.6,19.21,21.6c6.3,0,10.76-1.31,13.68-2.92l-2.23-5.92c-2.23,1.15-5.69,2.31-10.45,2.31
				c-6.84,0-10.75-3.84-11.52-11.53c10.7,0,21.74-1.27,25.59-3.69C568.01,296.81,562.01,289.51,551.02,289.51z M541.82,309.64
				c-0.23-9.92,3.44-14.37,8.9-14.37c5.15,0,8.15,3.54,8.15,11.92C554.22,308.96,547.05,309.64,541.82,309.64z M575.71,311.91
				c0,12.53,6.76,20.21,16.68,20.21c3.54,0,6.15-0.61,7.76-1.54l0,5.79c0,8.69-10.69,13.41-15.14,14.95l2.15,5.7
				c9.17-1.7,22.06-9.84,22.06-21.65v-42.84c-2.61-1.69-7.38-3-13.45-3C582.39,289.54,575.71,298.45,575.71,311.91z M600.15,325.36
				c-1.3,0.77-3.15,1.31-5.3,1.31c-6.92,0-9.84-5.15-9.84-15.22c0-10.38,3-16.37,10.3-16.37c2,0,3.61,0.23,4.84,0.92V325.36z
				 M490.74,313.64v-39.01h-9.84v36.15c0,13.99,8.43,20.92,20.19,20.92h4.26v-6.53h-2.62C495.88,325.17,490.74,321.4,490.74,313.64z
				"/>
			<path class="st2" d="M465.17,211.76c-11.12,0-16.51,8.77-16.51,20.63c0,11.72,5.38,20.56,16.51,20.56
				c11.13,0,16.51-8.84,16.51-20.56C481.67,220.53,476.37,211.76,465.17,211.76z M465.17,246.83c-6.19,0-7.59-7-7.59-14.52
				c0-7.59,1.25-14.88,7.59-14.88c6.41,0,7.59,7.29,7.59,14.88C472.76,239.83,471.58,246.83,465.17,246.83z M505.4,238.14
				c-0.81,2.95-1.03,5.45-1.03,5.45h-0.15c0,0-0.15-2.58-0.96-5.45l-7-25.64h-9.58l12.97,39.71h8.55l12.75-39.71h-8.4L505.4,238.14z
				 M398.16,200.78c-5.82,0-10.76,1.18-14,2.87v48.56h9.14v-20.04l1.99,0.15c15.11,1.11,21.37-6.56,21.37-15.77
				C416.66,207.56,411.2,200.78,398.16,200.78z M395.22,226.79l-1.92-0.15v-19.67c0.89-0.37,2.51-0.81,4.72-0.81
				c6.93,0,9.65,3.46,9.65,10.32C407.67,223.47,404.35,227.53,395.22,226.79z M425.22,214.63v37.58h8.99v-33.52
				c2.06-1.18,5.38-1.33,8.4-0.3l1.77-6.56C434.36,211.54,429.35,212.64,425.22,214.63z M563.94,211.76
				c-6.71,0-11.79,1.1-15.55,2.87v37.58h8.99v-33.67c1.69-0.66,3.24-1.1,6.19-1.1c5.67,0,7.15,3.39,7.15,6.63v28.15h8.99v-28.29
				C579.71,217.51,575.8,211.76,563.94,211.76z M606.47,246.46c-5.53,0-8.55-5.6-8.55-14.37c0-8.69,2.58-14.22,8.7-14.22
				c2.58,0,4.2,0.81,5.3,1.69l1.92-5.08c-1.47-1.25-4.35-2.73-9.21-2.73c-8.84,0-15.77,7.29-15.77,20.48
				c0,13.12,6.63,20.71,15.69,20.71c4.79,0,7.74-1.25,9.36-2.73l-2.06-5.53C610.6,245.73,608.9,246.46,606.47,246.46z
				 M528.48,252.21h8.99V212.5h-8.99V252.21z M532.96,196.3c-2.72,0-4.92,2.2-4.92,4.92c0,2.72,2.21,4.92,4.92,4.92
				c2.72,0,4.93-2.2,4.93-4.92C537.89,198.5,535.68,196.3,532.96,196.3z M638.47,246.68c-6.56,0-10.31-3.68-11.05-11.05
				c10.26,0,20.84-1.22,24.53-3.54c0.37-13.34-5.38-20.34-15.92-20.34c-10.39,0-16.95,7.52-16.95,20.48
				c0,13.41,7.15,20.7,18.42,20.7c6.04,0,10.32-1.25,13.12-2.8l-2.14-5.67C646.35,245.58,643.04,246.68,638.47,246.68z
				 M635.74,217.29c4.94,0,7.81,3.39,7.81,11.42c-4.45,1.7-11.32,2.36-16.34,2.36C626.99,221.56,630.51,217.29,635.74,217.29z"/>
		</g>
	</g>
</g>
</svg>
